<?xml version="1.0" encoding="UTF-8" standalone="no"?>
<svg
   inkscape:version="1.1 (c4e8f9e, 2021-05-24)"
   sodipodi:docname="linkedin-inverted-resized-grey.svg"
   id="svg837"
   version="1.1"
   viewBox="0 0 24 24"
   role="img"
   xmlns:inkscape="http://www.inkscape.org/namespaces/inkscape"
   xmlns:sodipodi="http://sodipodi.sourceforge.net/DTD/sodipodi-0.dtd"
   xmlns="http://www.w3.org/2000/svg"
   xmlns:svg="http://www.w3.org/2000/svg"
   xmlns:rdf="http://www.w3.org/1999/02/22-rdf-syntax-ns#"
   xmlns:cc="http://creativecommons.org/ns#"
   xmlns:dc="http://purl.org/dc/elements/1.1/">
  <metadata
     id="metadata843">
    <rdf:RDF>
      <cc:Work
         rdf:about="">
        <dc:format>image/svg+xml</dc:format>
        <dc:type
           rdf:resource="http://purl.org/dc/dcmitype/StillImage" />
        <dc:title>LinkedIn icon</dc:title>
      </cc:Work>
    </rdf:RDF>
  </metadata>
  <defs
     id="defs841" />
  <sodipodi:namedview
     inkscape:current-layer="svg837"
     inkscape:window-maximized="1"
     inkscape:window-y="25"
     inkscape:window-x="0"
     inkscape:cy="15.051948"
     inkscape:cx="8.3486514"
     inkscape:zoom="16.409836"
     showgrid="false"
     id="namedview839"
     inkscape:window-height="776"
     inkscape:window-width="1440"
     inkscape:pageshadow="2"
     inkscape:pageopacity="0"
     guidetolerance="10"
     gridtolerance="10"
     objecttolerance="10"
     borderopacity="1"
     bordercolor="#666666"
     pagecolor="#ffffff"
     inkscape:pagecheckerboard="0" />
  <title
     id="title833">LinkedIn icon</title>
  <path
     id="path835"
     style="fill:#4d4c4e;fill-opacity:1;stroke-width:1.23126"
     d="m 3.9691129,1.4440553 c -1.4073375,0 -2.5418917,1.1383058 -2.5418917,2.5394869 0,1.4024124 1.1333229,2.5442966 2.5418917,2.5442966 1.4024124,-10e-8 2.5394869,-1.1418842 2.5394869,-2.5442966 0,-1.4011811 -1.1358432,-2.5394869 -2.5394869,-2.5394869 z M 17.320658,8.1005891 c -2.133784,0 -3.563401,1.1692225 -4.150714,2.2773629 h -0.05531 V 8.456502 H 8.9110118 v 14.099443 h 4.3743632 v -6.976374 c 0,-1.839512 0.349333,-3.61925 2.630869,-3.61925 2.247063,0 2.279767,2.104369 2.279767,3.73949 v 6.856134 h 4.376768 v -7.7387 c 0,-3.798458 -0.818331,-6.7166559 -5.252121,-6.7166559 z M 1.7735149,8.456502 V 22.555945 H 6.1623061 V 8.456502 Z"
     sodipodi:nodetypes="ssssssccccccsssccssccccc" />
</svg>
